<svg fill="none" xmlns="http://www.w3.org/2000/svg" viewBox="3 2 18 21"> <path d="M14 3C11 3 10 3 10 3H6M14 3H18C18.5304 3 19.0391 3.20018 19.4142 3.5565C19.7893 3.91282 20 4.39609 20 4.9V20.1C20 20.6039 19.7893 21.0872 19.4142 21.4435C19.0391 21.7998 18.5304 22 18 22H6C5.46957 22 4.96086 21.7998 4.58579 21.4435C4.21071 21.0872 4 20.6039 4 20.1V4.9C4 4.39609 4.21071 3.91282 4.58579 3.5565C4.96086 3.20018 5.46957 3 6 3M14 3H6" stroke="black" stroke-width="2" stroke-linecap="round" stroke-linejoin="round"></path> <path d="M4 8H20" stroke="black" stroke-width="2" stroke-linecap="round" stroke-linejoin="round"></path> <path d="M12 18V12" stroke="black" stroke-width="2" stroke-linecap="round" stroke-linejoin="round"></path> <path d="M9 15H15" stroke="black" stroke-width="2" stroke-linecap="round" stroke-linejoin="round"></path> </svg>