<svg fill="none" xmlns="http://www.w3.org/2000/svg" viewBox="2 3 21 19"> <path fill-rule="evenodd" clip-rule="evenodd" d="M18 14H20V17H23V19H20V22H18V19H15V17H18V14ZM4 3H18C18.5304 3 19.0391 3.21071 19.4142 3.58579C19.7893 3.96086 20 4.46957 20 5V12.08C18.45 11.82 16.92 12.18 15.68 13H12H10H4V17H10H12H13.08C12.97 17.68 12.97 18.35 13.08 19H4C3.46957 19 2.96086 18.7893 2.58579 18.4142C2.21071 18.0391 2 17.5304 2 17V5C2 4.46957 2.21071 3.96086 2.58579 3.58579C2.96086 3.21071 3.46957 3 4 3ZM4 7V11H10H12H18V7H12H10H4Z" fill="black"></path> </svg>